<svg xmlns="http://www.w3.org/2000/svg" width="24" height="24" viewBox="0 0 24 24" fill="none" stroke="#f1c40f" stroke-width="2" stroke-linecap="round" stroke-linejoin="round" class="lucide lucide-cpu"><rect x="2" y="2" width="20" height="20" rx="2" ry="2"/><path d="M6 16v-3h3"/><path d="M12 16v-3h3"/><path d="M18 16v-3h-3"/><path d="M6 8v3h3"/><path d="M12 8v3h3"/><path d="M18 8v3h-3"/><path d="M12 2v2"/><path d="M12 20v2"/><path d="M2 12h2"/><path d="M20 12h2"/><path d="M16 2v2"/><path d="M16 20v2"/><path d="M8 2v2"/><path d="M8 20v2"/><path d="M2 8h2"/><path d="M20 8h2"/><path d="M2 16h2"/><path d="M20 16h2"/></svg>